<?xml version="1.0" standalone="no"?>
<!DOCTYPE svg PUBLIC "-//W3C//DTD SVG 20010904//EN"
 "http://www.w3.org/TR/2001/REC-SVG-20010904/DTD/svg10.dtd">
<svg version="1.0" xmlns="http://www.w3.org/2000/svg"
 width="260.000000pt" height="260.000000pt" viewBox="0 0 260.000000 260.000000"
 preserveAspectRatio="xMidYMid meet">
<metadata>
Created by potrace 1.14, written by Peter Selinger 2001-2017
</metadata>
<g transform="translate(0.000000,260.000000) scale(0.100000,-0.100000)"
fill="#000000" stroke="none">
<path d="M1117 2535 c-177 -25 -361 -97 -522 -203 -90 -60 -267 -237 -327
-327 -112 -170 -179 -346 -204 -540 -52 -388 76 -765 355 -1044 237 -237 546
-365 881 -365 687 1 1243 557 1244 1244 0 335 -128 644 -365 881 -179 179
-400 298 -641 344 -118 23 -303 27 -421 10z m1067 -547 c-28 -93 -132 -297
-170 -335 l-23 -23 -554 0 c-546 0 -555 0 -581 -21 -30 -24 -36 -81 -12 -115
14 -18 35 -19 583 -24 415 -4 574 -8 589 -17 33 -19 91 -88 118 -141 41 -82
56 -159 56 -294 0 -221 -61 -380 -172 -448 -32 -20 -47 -20 -806 -20 l-772 0
2 188 3 187 637 3 637 2 20 29 c27 37 27 71 0 105 l-20 26 -532 0 c-315 0
-546 4 -566 10 -75 21 -129 78 -158 167 -20 62 -30 397 -14 473 22 104 88 210
156 252 28 17 72 18 808 18 l778 0 -7 -22z"/>
</g>
</svg>
